<svg data-v-0dd9719b="" version="1.0" xmlns="http://www.w3.org/2000/svg" xmlns:xlink="http://www.w3.org/1999/xlink" width="100%" height="100%" viewBox="0 0 340.000000 250.000000" preserveAspectRatio="xMidYMid meet" color-interpolation-filters="sRGB" style="margin: auto;"> <rect data-v-0dd9719b="" x="0" y="0" width="100%" height="100%" fill="#fff" fill-opacity="1" class="background"></rect> <rect data-v-0dd9719b="" x="0" y="0" width="100%" height="100%" fill="url(#watermark)" fill-opacity="1" class="watermarklayer"></rect> <g data-v-0dd9719b="" fill="#333" class="icon-text-wrapper icon-svg-group iconsvg" transform="translate(49.13999938964844,97.25093841552734)"><g class="iconsvg-imagesvg" transform="translate(0,1.0679264068603516)"><g><rect fill="#333" fill-opacity="0" stroke-width="2" x="0" y="0" width="60" height="53.36226754062203" class="image-rect"></rect> <svg x="0" y="0" width="60" height="53.36226754062203" filtersec="colorsb2184871023" class="image-svg-svg primary" style="overflow: visible;"><svg xmlns="http://www.w3.org/2000/svg" viewBox="0.018869996070861816 -0.007777795195579529 165.35342407226562 147.0611114501953"><path d="M160.27 86.4l-3.71 6.43-4.85 8.35c-2.47 4.2-5.81 7.33-10.65 8.57a13.22 13.22 0 0 1-3.26.39c-4.94 0-9.89-.06-14.84 0-21.57.41-43.15 0-64.73.26-5.63.08-11.26.08-16.89.2a1.61 1.61 0 0 0-1.58.89q-2.58 4.64-5.25 9.22a18.67 18.67 0 0 0-2 5.6c-.15.7.22 1 .83 1.27a14.86 14.86 0 0 0 5 1h5.51c26.82 1 53.65.13 80.48.47 5.13.07 9.78-.94 13.58-4.6.29.19.18.38.08.54-2.84 4.86-5.57 9.78-8.55 14.55A15 15 0 0 1 116 147c-22.65 0-45.29.12-67.94 0-5.51 0-9.73-2.91-12.52-7.7-3.82-6.54-7.65-13.07-11.4-19.66-2.35-4.12-3.51-8.5-2.22-13.26a28.12 28.12 0 0 1 3.19-6.57q9.36-16.24 18.74-32.49 8.47-14.65 17-29.3c.8-1.38 1.51-2.81 2.35-4.15a1.86 1.86 0 0 0 0-2.16L58 22.85c-1.28-2.23-2.55-4.46-3.84-6.69-.24-.41-.42-1-1-.95s-.67.51-.89.9L40.85 35.78Q30.52 53.66 20.2 71.55c-2.48 4.3-5 8.59-7.39 12.93a15.66 15.66 0 0 0-1.31 11.94c.14.53.2 1.09.3 1.68-3.55-5.68-7-11.42-10-17.33-2.8-5.4-2.15-10.84.91-16.09 6.5-11.15 12.91-22.36 19.37-33.55 4.51-7.83 9-15.71 13.6-23.46A14.84 14.84 0 0 1 48.89 0h5.27a3.49 3.49 0 0 1 1.43.22c2.23 1 4.55 1.54 6.39 3.48a37.57 37.57 0 0 1 5.13 6.85 91.45 91.45 0 0 0 5.49 8.88 63.49 63.49 0 0 1 4.09 7c1.52 2.64 3.11 5.24 4.55 7.92.55 1 1.63 1.91 1.24 3.31-1.57 2.61-3.13 5.22-4.72 7.82C75.05 50 72.55 54.51 70 59q-9.16 15.9-18.34 31.78c-.66 1.13-.59 1.3.69 1.32 5.51.1 11 .08 16.52.14 14.63.16 29.25.06 43.88 0 .53 0 1 0 1.58-.08l31.5-.16a20.37 20.37 0 0 0 6-.59 18.31 18.31 0 0 0 6.44-3.48c.73-.53 1.12-1.33 2-1.53z" fill="#1a9c5a"></path><path d="M160.27 86.4c-.88.2-1.32 1-2 1.53a18.31 18.31 0 0 1-6.44 3.48 20.37 20.37 0 0 1-6 .59l-31.55.22a3 3 0 0 0-.46-1.24c-.94-1.53-1.85-3.07-2.75-4.62-2.37-4.12-4.73-8.26-7.07-12.36-2.14-3.69-4.31-7.36-6.44-11.06-2.44-4.22-4.84-8.47-7.28-12.7-2.17-3.77-4.36-7.52-6.56-11.28-.29-.5-.44-1.16-1.2-1.24.39-1.4-.69-2.28-1.24-3.31-1.44-2.68-3-5.28-4.55-7.92a63.49 63.49 0 0 0-4.09-7 91.45 91.45 0 0 1-5.49-8.88A37.57 37.57 0 0 0 62 3.71c-1.86-1.94-4.18-2.52-6.41-3.48a39.73 39.73 0 0 1 5-.17c4.62 0 9.25-.11 13.86.08a14.43 14.43 0 0 1 12.16 6.93c3.49 5.54 6.62 11.32 9.92 17 2.78 4.8 5.58 9.58 8.35 14.38q5.16 8.94 10.3 17.88c2.48 4.3 5 8.58 7.49 12.88q2.2 3.8 4.34 7.65a1.77 1.77 0 0 0 1.65 1h18.76c1.09 0 1.28-.42.73-1.37-2.57-4.45-5-9-7.73-13.33-2.22-3.52-4.16-7.21-6.34-10.76-1.81-3-3.43-6.09-5.17-9.12-1.83-3.21-3.68-6.41-5.67-9.53-1.54-2.41-2.69-5.08-4.15-7.56-2.49-4.25-4.91-8.54-7.37-12.81a78 78 0 0 0-4.06-6.82A15.11 15.11 0 0 0 99.91.89a10.86 10.86 0 0 1-1.15-.5c.48-.43 1-.29 1.45-.3 5.85 0 11.7-.22 17.53 0a14.32 14.32 0 0 1 11.11 6.33c2.26 3.09 3.92 6.56 5.86 9.86 2.83 4.81 5.6 9.66 8.4 14.49l7.31 12.69c2.51 4.34 5 8.68 7.54 13 1.77 3.07 3.59 6.1 5.28 9.22A15.92 15.92 0 0 1 163 82a21.29 21.29 0 0 1-2.73 4.4z" fill="#f3b403"></path></svg></svg> <!----></g></g> <g transform="translate(67,0)"><g data-gra="path-name" fill-rule="" class="tp-name iconsvg-namesvg" transform="translate(0,0)"><g transform="scale(1)"><g><path d="M8.61-29.71L8.61-33.75Q8.61-33.93 8.96-33.75L8.96-33.75Q11.07-33.4 15.12-33.4L15.12-33.4 29.88-33.4Q33.93-33.4 36.04-33.75L36.04-33.75Q36.39-33.93 36.39-33.75L36.39-33.75 36.39-29.71Q36.39-29.53 35.86-29.71L35.86-29.71Q33.75-30.06 29.88-30.06L29.88-30.06 15.12-30.06Q11.25-30.06 9.14-29.71L9.14-29.71Q8.61-29.53 8.61-29.71L8.61-29.71ZM2.99-17.93L2.99-21.97Q4.04-21.62 9.32-21.62L9.32-21.62 34.98-21.62Q40.43-21.62 41.66-21.97L41.66-21.97 41.66-17.93Q40.61-18.28 35.16-18.28L35.16-18.28 9.49-18.28Q4.04-18.28 2.99-17.93L2.99-17.93ZM24.79-15.82L24.79-15.82Q24.79-15.64 24.43-15.29L24.43-15.29Q23.03-14.41 21.45-12.83L21.45-12.83Q20.92-12.3 19.34-10.37L19.34-10.37Q13.71-3.52 11.95-2.46L11.95-2.46Q19.34-2.64 28.3-2.81L28.3-2.81Q31.82-2.99 32.52-2.99L32.52-2.99Q30.06-6.68 26.54-10.37L26.54-10.37 30.23-12.48Q33.93-7.38 40.43 0.53L40.43 0.53 36.39 2.99Q35.86 2.11 34.98 0.88L34.98 0.88Q34.45 0 34.28-0.18L34.28-0.18Q32.52-0.18 28.83 0L28.83 0Q12.66 0.18 7.56 1.58L7.56 1.58 5.98-2.64Q12.83-4.22 19.34-17.75L19.34-17.75Q24.61-16.17 24.79-15.82ZM65.04-36.21L65.04-36.21Q69.08-36.39 70.14-35.51L70.14-35.51Q70.31-35.33 69.96-34.8L69.96-34.8Q68.91-33.4 68.91-30.76L68.91-30.76 80.51-30.76Q83.85-30.76 87.19-31.11L87.19-31.11 87.19-27.07Q84.02-27.42 80.68-27.42L80.68-27.42 68.91-27.42 68.91-22.85 77.52-22.85Q81.39-22.85 84.02-23.2L84.02-23.2Q84.02-23.2 84.02-22.68L84.02-22.68Q83.85-20.21 83.85-17.4L83.85-17.4 83.85 0.53Q83.85 2.64 82.62 3.16L82.62 3.16Q81.91 3.69 76.64 4.22L76.64 4.22Q76.64 2.11 74.88 0L74.88 0Q80.86 0.7 80.33-1.41L80.33-1.41 80.33-19.69 54.84-19.69 54.84-1.58Q55.02 4.22 55.02 4.22L55.02 4.22 50.98 4.22Q51.33 2.11 51.33-1.41L51.33-1.41 51.33-17.4Q51.33-20.04 50.98-22.5L50.98-22.5Q50.98-23.03 50.98-23.2L50.98-23.2Q53.44-22.85 56.43-22.85L56.43-22.85 65.21-22.85 65.21-27.25 54.14-27.25Q48.87-27.25 47.64-26.89L47.64-26.89 47.64-31.11Q48.87-30.76 54.49-30.76L54.49-30.76 65.21-30.76 65.21-33.57Q65.21-35.33 65.04-36.21ZM70.49-19.16L70.49-19.16Q74.88-17.93 74.88-17.75L74.88-17.75Q74.88-17.58 74.53-17.23L74.53-17.23Q72.95-15.82 71.54-13.01L71.54-13.01 73.65-13.01Q74.18-13.01 77.52-13.18L77.52-13.18 77.52-10.02Q77.7-10.2 73.3-10.2L73.3-10.2 68.73-10.2 68.73-6.68 73.65-6.68Q75.06-6.68 77.7-6.86L77.7-6.86 77.7-3.87Q75.06-4.04 73.65-4.04L73.65-4.04 68.73-4.04 68.73-0.88Q68.73 1.41 69.08 3.52L69.08 3.52 65.04 3.52Q65.39 2.29 65.39-0.88L65.39-0.88 65.39-4.04 60.82-4.04Q59.59-4.04 56.43-3.87L56.43-3.87 56.43-6.86Q58.89-6.68 60.82-6.68L60.82-6.68 65.39-6.68 65.39-10.2 61.35-10.2Q60.64-10.2 57.3-10.02L57.3-10.02 57.3-13.18Q59.41-13.01 61.17-13.01L61.17-13.01 68.55-13.01Q70.31-16.35 70.49-19.16ZM60.29-17.93L63.46-19.16Q64.34-17.93 65.39-14.94L65.39-14.94 62.23-13.71Q61.35-16.7 60.29-17.93L60.29-17.93ZM117.77-36.39L117.77-36.39Q123.05-36.39 123.05-35.86L123.05-35.86Q123.05-35.68 122.87-35.33L122.87-35.33Q121.82-33.05 121.82-26.89L121.82-26.89 124.8-26.89Q128.32-26.89 130.43-27.42L130.43-27.42 130.43-23.55Q128.85-23.91 124.63-23.91L124.63-23.91 121.82-23.91Q121.64-21.97 121.46-18.63L121.46-18.63Q121.29-16.88 121.29-16L121.29-16 125.68-16Q129.73-16 132.01-16.35L132.01-16.35 132.01-12.66Q129.2-13.01 125.86-13.01L125.86-13.01 122.7-13.01Q126.04-2.29 133.77 0.53L133.77 0.53Q133.77 0.7 133.24 1.05L133.24 1.05Q131.48 1.93 130.08 4.22L130.08 4.22Q122.17-3.16 120.41-11.95L120.41-11.95Q117.95 0 108.11 4.39L108.11 4.39Q106.52 2.46 104.77 1.76L104.77 1.76Q104.41 1.76 104.41 1.58L104.41 1.58Q115.49-1.93 117.25-13.01L117.25-13.01 114.08-13.01Q111.27-13.01 108.46-12.66L108.46-12.66 108.46-16.35Q111.27-16 114.08-16L114.08-16 117.77-16Q118.48-20.04 118.48-23.91L118.48-23.91 113.2-23.91Q112.15-20.57 111.09-17.75L111.09-17.75Q109.16-18.63 107.58-18.81L107.58-18.81Q110.92-24.96 111.09-33.05L111.09-33.05Q111.45-33.05 112.32-32.87L112.32-32.87Q115.84-32.52 115.66-31.99L115.66-31.99Q115.66-31.82 115.49-31.46L115.49-31.46Q114.26-30.06 113.73-26.89L113.73-26.89 118.48-26.89Q118.48-27.6 118.48-28.65L118.48-28.65Q118.65-34.1 117.77-36.39ZM98.09-36.21L98.09-36.21Q102.83-34.8 103.01-34.28L103.01-34.28Q103.01-33.93 102.3-33.57L102.3-33.57Q101.43-33.05 100.9-32.34L100.9-32.34Q100.37-31.46 99.67-30.41L99.67-30.41Q99.32-29.88 99.14-29.53L99.14-29.53 103.36-29.53Q105.12-29.53 108.11-29.88L108.11-29.88 108.11-26.19Q105.64-26.54 103.18-26.54L103.18-26.54 97.73-26.54Q97.38-25.66 96.15-24.08L96.15-24.08Q95.45-22.85 94.92-22.15L94.92-22.15Q96.68-21.62 98.09-21.62L98.09-21.62 102.66-21.62Q104.59-21.62 106.35-21.97L106.35-21.97 106.35-18.63Q104.59-18.98 102.83-18.98L102.83-18.98 101.6-18.98 101.6-13.71 103.01-13.71Q105.82-13.71 107.23-14.24L107.23-14.24 107.23-10.72Q107.05-10.72 106.88-10.72L106.88-10.72Q104.94-11.07 103.36-11.07L103.36-11.07 101.43-11.07 101.43-3.34Q104.24-5.27 107.23-7.56L107.23-7.56 108.11-3.52Q102.48-0.53 98.61 3.34L98.61 3.34 96.15 0Q96.15-0.18 97.38-1.41L97.38-1.41Q98.09-2.11 98.09-2.29L98.09-2.29 98.09-11.07 95.98-11.07Q93.34-11.07 92.29-10.72L92.29-10.72 92.29-14.06Q93.34-13.71 96.15-13.71L96.15-13.71 98.26-13.71 98.26-18.98Q96.33-18.98 94.39-18.63L94.39-18.63 94.39-21.27 92.81-19.16Q92.11-21.8 91.05-22.5L91.05-22.5Q97.03-30.59 98.09-36.21ZM167.34-30.41L147.66-30.41 147.66-22.5 167.34-22.5 167.34-30.41ZM171.39-34.28L171.39-34.28Q171.21-32.34 171.21-29.88L171.21-29.88 171.21-23.03Q171.21-21.09 171.56-18.98L171.56-18.98Q169.8-19.16 167.34-19.16L167.34-19.16 159.26-19.16 159.26-12.66 167.87-12.66Q171.04-12.66 173.32-13.01L173.32-13.01 173.32-8.79Q170.68-9.32 167.52-9.32L167.52-9.32 159.26-9.32 159.26-0.88Q167.17-0.35 177.71-2.11L177.71-2.11Q176.13 0.18 175.96 2.64L175.96 2.64Q161.02 3.16 154.86 1.41L154.86 1.41Q148.89 0 145.72-5.45L145.72-5.45Q143.26-0.35 139.57 3.52L139.57 3.52Q137.29 1.23 136.05 0.88L136.05 0.88Q144.14-5.27 145.2-15.82L145.2-15.82Q150.29-14.59 150.29-14.06L150.29-14.06Q149.41-13.54 148.18-10.55L148.18-10.55Q147.83-9.32 147.48-8.61L147.48-8.61Q149.41-3.87 155.74-1.76L155.74-1.76 155.74-19.16 148.01-19.16Q145.72-19.16 143.79-18.63L143.79-18.63Q143.96-20.74 143.96-22.68L143.96-22.68 143.96-30.94Q143.96-32.52 143.61-34.28L143.61-34.28Q146.6-33.93 149.06-33.93L149.06-33.93 166.29-33.93Q168.93-33.93 171.39-34.28Z" transform="translate(-2.990000009536743, 36.38999938964844)"></path></g> <!----> <!----> <!----> <!----> <!----> <!----> <!----></g></g> <g data-gra="path-slogan" fill-rule="" class="tp-slogan iconsvg-slogansvg" fill="#333" transform="translate(5,46.779998779296875)"><rect x="0" height="1" y="3.8600001335144043" width="35.790000915527344"></rect> <rect height="1" y="3.8600001335144043" width="35.790000915527344" x="128.93000030517578"></rect> <g transform="translate(38.790000915527344,0)"><g transform="scale(1)"><path d="M7.83-8.58L4.59-3.47L4.59 0L3.42 0L3.42-3.47L0.19-8.58L1.55-8.58L3.98-4.45L6.47-8.58L7.83-8.58ZM14.53-3.19L14.53-8.58L15.70-8.58L15.70-3.05Q15.56 0.05 12.19 0.14L12.19 0.14Q9.05 0.05 8.91-2.86L8.91-2.86L8.91-8.58L10.08-8.58L10.08-3.19Q10.13-0.84 12.23-0.80L12.23-0.80Q14.53-0.84 14.53-3.19L14.53-3.19ZM18.89-8.58L23.20-1.64L23.20-8.58L24.33-8.58L24.33 0L23.02 0L18.66-6.94L18.61-6.94L18.61 0L17.48 0L17.48-8.58L18.89-8.58ZM27.52-8.58L31.83-1.64L31.83-8.58L32.95-8.58L32.95 0L31.64 0L27.28-6.94L27.23-6.94L27.23 0L26.11 0L26.11-8.58L27.52-8.58ZM40.41 0L39.56-2.48L36.09-2.48L35.20 0L34.03 0L37.27-8.58L38.58-8.58L41.67 0L40.41 0ZM37.83-7.31L36.47-3.52L39.14-3.52L37.88-7.31L37.83-7.31ZM44.11-8.58L48.42-1.64L48.42-8.58L49.55-8.58L49.55 0L48.23 0L43.88-6.94L43.83-6.94L43.83 0L42.70 0L42.70-8.58L44.11-8.58ZM56.86-7.59L53.95-7.59L53.95-8.58L60.89-8.58L60.89-7.59L57.98-7.59L57.98 0L56.86 0L56.86-7.59ZM62.11-8.58L63.28-8.58L63.28 0L62.11 0L62.11-8.58ZM66.56-1.03L71.72-1.03L71.72 0L65.39 0L65.39-8.58L71.63-8.58L71.63-7.59L66.56-7.59L66.56-4.92L71.25-4.92L71.25-3.89L66.56-3.89L66.56-1.03ZM74.06-1.03L79.36-1.03L79.36 0L72.61 0L72.61-0.94L77.86-7.59L72.98-7.59L72.98-8.58L79.36-8.58L79.36-7.59L74.06-1.03ZM86.16-3.19L86.16-8.58L87.33-8.58L87.33-3.05Q87.19 0.05 83.81 0.14L83.81 0.14Q80.67 0.05 80.53-2.86L80.53-2.86L80.53-8.58L81.70-8.58L81.70-3.19Q81.75-0.84 83.86-0.80L83.86-0.80Q86.16-0.84 86.16-3.19L86.16-3.19Z" transform="translate(-0.1875, 8.578125)"></path></g></g></g></g></g><defs v-gra="od"></defs></svg>